<?xml version="1.0" encoding="UTF-8"?>
<svg id="Layer_1" xmlns="http://www.w3.org/2000/svg" version="1.1" viewBox="0 0 105.8 41.46">
  <!-- Generator: Adobe Illustrator 29.7.1, SVG Export Plug-In . SVG Version: 2.1.1 Build 8)  -->
  <defs>
    <style>
      .st0 {
        fill: #231f20;
      }

      .st1 {
        fill: #0a90d0;
      }
    </style>
  </defs>
  <rect class="st0" x=".25" y="12.85" width="6.93" height="2.01" rx="1" ry="1"/>
  <rect class="st0" x=".25" y="16.09" width="6.93" height="2.01" rx="1" ry="1"/>
  <rect class="st1" x=".25" y="19.34" width="6.93" height="2.01" rx="1" ry="1"/>
  <rect class="st1" x=".25" y="22.58" width="6.93" height="2.01" rx="1" ry="1"/>
  <rect class="st1" x=".25" y="25.82" width="6.93" height="2.01" rx="1" ry="1"/>
  <rect class="st1" x=".25" y="29.07" width="6.93" height="2.01" rx="1" ry="1"/>
  <rect class="st0" x="10.09" y="12.85" width="6.93" height="2.01" rx="1" ry="1"/>
  <rect class="st1" x="10.09" y="16.09" width="6.93" height="2.01" rx="1" ry="1"/>
  <rect class="st1" x="10.09" y="19.34" width="6.93" height="2.01" rx="1" ry="1"/>
  <rect class="st1" x="10.09" y="22.58" width="6.93" height="2.01" rx="1" ry="1"/>
  <rect class="st1" x="10.09" y="25.82" width="6.93" height="2.01" rx="1" ry="1"/>
  <rect class="st1" x="10.09" y="29.07" width="6.93" height="2.01" rx="1" ry="1"/>
  <rect class="st1" x="19.94" y="12.85" width="6.93" height="2.01" rx="1" ry="1"/>
  <rect class="st1" x="19.94" y="16.09" width="6.93" height="2.01" rx="1" ry="1"/>
  <rect class="st1" x="19.94" y="19.34" width="6.93" height="2.01" rx="1" ry="1"/>
  <rect class="st1" x="19.94" y="22.58" width="6.93" height="2.01" rx="1" ry="1"/>
  <rect class="st1" x="19.94" y="25.82" width="6.93" height="2.01" rx="1" ry="1"/>
  <rect class="st1" x="19.94" y="29.07" width="6.93" height="2.01" rx="1" ry="1"/>
  <rect class="st1" x="29.31" y="12.85" width="14.31" height="2.01" rx="1" ry="1"/>
  <rect class="st1" x="50.88" y="12.85" width="11.84" height="2.01" rx="1" ry="1"/>
  <rect class="st1" x="50.88" y="16.09" width="14.31" height="2.01" rx="1" ry="1"/>
  <rect class="st1" x="50.88" y="19.34" width="14.31" height="2.01" rx="1" ry="1"/>
  <rect class="st1" x="50.88" y="38.8" width="14.31" height="2.01" rx="1" ry="1"/>
  <rect class="st1" x="48.41" y="35.55" width="16.78" height="2.01" rx="1" ry="1"/>
  <rect class="st1" x="48.41" y="32.31" width="16.78" height="2.01" rx="1" ry="1"/>
  <rect class="st1" x="50.88" y="25.82" width="14.31" height="2.01" rx="1" ry="1"/>
  <rect class="st1" x="31.77" y="9.6" width="6.93" height="2.01" rx="1" ry="1"/>
  <rect class="st1" x="31.77" y="6.36" width="6.93" height="2.01" rx="1" ry="1"/>
  <rect class="st1" x="29.31" y="16.09" width="14.31" height="2.01" rx="1" ry="1"/>
  <rect class="st1" x="29.31" y="19.34" width="14.31" height="2.01" rx="1" ry="1"/>
  <rect class="st1" x="31.77" y="22.58" width="6.93" height="2.01" rx="1" ry="1"/>
  <rect class="st1" x="31.77" y="25.82" width="6.93" height="2.01" rx="1" ry="1"/>
  <rect class="st1" x="31.77" y="29.07" width="6.93" height="2.01" rx="1" ry="1"/>
  <rect class="st1" x="31.77" y="32.31" width="11.85" height="2.01" rx="1" ry="1"/>
  <rect class="st1" x="31.77" y="35.55" width="11.85" height="2.01" rx="1" ry="1"/>
  <rect class="st1" x="34.23" y="38.8" width="9.39" height="2.01" rx="1" ry="1"/>
  <rect class="st1" x="67.62" y="12.85" width="6.93" height="2.01" rx="1" ry="1"/>
  <rect class="st1" x="67.62" y="16.09" width="6.93" height="2.01" rx="1" ry="1"/>
  <rect class="st1" x="67.62" y="19.34" width="6.93" height="2.01" rx="1" ry="1"/>
  <rect class="st1" x="67.62" y="22.58" width="6.93" height="2.01" rx="1" ry="1"/>
  <rect class="st1" x="67.62" y="25.82" width="6.93" height="2.01" rx="1" ry="1"/>
  <rect class="st1" x="67.62" y="29.07" width="6.93" height="2.01" rx="1" ry="1"/>
  <rect class="st1" x="67.62" y="32.31" width="6.93" height="2.01" rx="1" ry="1"/>
  <rect class="st1" x="67.62" y="35.55" width="6.93" height="2.01" rx="1" ry="1"/>
  <rect class="st1" x="67.62" y="38.8" width="6.93" height="2.01" rx="1" ry="1"/>
  <rect class="st1" x="67.62" y="7.14" width="6.93" height="2.01" rx="1" ry="1"/>
  <rect class="st1" x="67.62" y="3.9" width="6.93" height="2.01" rx="1" ry="1"/>
  <rect class="st1" x="67.62" y=".65" width="6.93" height="2.01" rx="1" ry="1"/>
  <rect class="st1" x="58.26" y="22.58" width="6.93" height="2.01" rx="1" ry="1"/>
  <rect class="st1" x="48.41" y="29" width="6.93" height="2.01" rx="1" ry="1"/>
  <rect class="st1" x="58.26" y="29" width="6.93" height="2.01" rx="1" ry="1"/>
  <rect class="st1" x="2.71" y="38.78" width="9.39" height="2.01" rx="1" ry="1"/>
  <rect class="st1" x="15.02" y="38.78" width="9.39" height="2.01" rx="1" ry="1"/>
  <rect class="st1" x=".25" y="32.31" width="26.62" height="2.01" rx="1" ry="1"/>
  <rect class="st1" x=".25" y="35.55" width="26.62" height="2.01" rx="1" ry="1"/>
</svg>